<svg width="1440" height="660" viewBox="0 0 1440 660" fill="none" xmlns="http://www.w3.org/2000/svg">
<g clip-path="url(#clip0_3203_25133)">
<rect width="1440" height="660" fill="white"/>
<path d="M94.6097 264.639L99.8007 264.186C100.047 266.266 100.614 267.977 101.503 269.32C102.41 270.644 103.81 271.722 105.701 272.554C107.592 273.367 109.719 273.773 112.083 273.773C114.182 273.773 116.036 273.461 117.643 272.837C119.251 272.213 120.442 271.362 121.217 270.284C122.011 269.188 122.409 267.996 122.409 266.71C122.409 265.405 122.03 264.271 121.274 263.306C120.518 262.323 119.269 261.5 117.53 260.838C116.414 260.403 113.946 259.732 110.126 258.824C106.306 257.898 103.63 257.028 102.098 256.215C100.113 255.175 98.6282 253.889 97.6449 252.357C96.6804 250.806 96.1982 249.076 96.1982 247.166C96.1982 245.067 96.7939 243.11 97.9853 241.294C99.1767 239.46 100.916 238.07 103.205 237.124C105.493 236.179 108.036 235.706 110.835 235.706C113.918 235.706 116.631 236.207 118.976 237.209C121.34 238.193 123.156 239.649 124.423 241.578C125.69 243.507 126.37 245.691 126.465 248.13L121.189 248.527C120.905 245.899 119.941 243.913 118.296 242.571C116.669 241.228 114.258 240.557 111.062 240.557C107.734 240.557 105.304 241.171 103.772 242.4C102.259 243.611 101.503 245.076 101.503 246.797C101.503 248.291 102.042 249.52 103.12 250.485C104.179 251.449 106.94 252.442 111.403 253.463C115.884 254.465 118.957 255.345 120.622 256.101C123.042 257.217 124.829 258.635 125.983 260.356C127.136 262.058 127.713 264.025 127.713 266.256C127.713 268.469 127.08 270.559 125.813 272.525C124.546 274.473 122.721 275.995 120.338 277.092C117.974 278.17 115.308 278.709 112.339 278.709C108.575 278.709 105.417 278.161 102.864 277.064C100.33 275.967 98.3351 274.322 96.879 272.128C95.4418 269.916 94.6853 267.419 94.6097 264.639ZM154.236 274.284C152.344 275.891 150.52 277.026 148.761 277.688C147.021 278.35 145.149 278.681 143.144 278.681C139.835 278.681 137.291 277.877 135.514 276.27C133.736 274.643 132.847 272.573 132.847 270.057C132.847 268.582 133.178 267.24 133.84 266.029C134.521 264.8 135.4 263.817 136.478 263.079C137.575 262.342 138.804 261.784 140.166 261.406C141.168 261.141 142.681 260.886 144.705 260.64C148.827 260.148 151.862 259.562 153.81 258.881C153.829 258.181 153.838 257.737 153.838 257.548C153.838 255.468 153.356 254.002 152.392 253.151C151.087 251.998 149.149 251.421 146.577 251.421C144.175 251.421 142.397 251.846 141.244 252.697C140.109 253.529 139.268 255.014 138.719 257.151L133.727 256.47C134.181 254.333 134.928 252.612 135.968 251.307C137.008 249.984 138.511 248.972 140.478 248.272C142.445 247.554 144.723 247.194 147.314 247.194C149.886 247.194 151.976 247.497 153.583 248.102C155.191 248.707 156.372 249.473 157.129 250.4C157.885 251.307 158.415 252.461 158.717 253.86C158.888 254.73 158.973 256.3 158.973 258.569V265.377C158.973 270.124 159.077 273.13 159.285 274.397C159.512 275.646 159.947 276.846 160.59 278H155.257C154.727 276.941 154.387 275.702 154.236 274.284ZM153.81 262.881C151.957 263.637 149.177 264.28 145.47 264.81C143.371 265.112 141.887 265.453 141.017 265.831C140.147 266.209 139.476 266.767 139.003 267.504C138.53 268.223 138.294 269.027 138.294 269.916C138.294 271.277 138.804 272.412 139.826 273.32C140.866 274.227 142.378 274.681 144.364 274.681C146.331 274.681 148.08 274.256 149.612 273.405C151.144 272.535 152.269 271.353 152.987 269.859C153.536 268.705 153.81 267.003 153.81 264.753V262.881ZM168.135 278V251.846H163.625V247.875H168.135V244.67C168.135 242.646 168.315 241.143 168.674 240.159C169.166 238.836 170.026 237.767 171.255 236.954C172.503 236.122 174.243 235.706 176.475 235.706C177.912 235.706 179.5 235.876 181.24 236.217L180.474 240.67C179.415 240.481 178.413 240.386 177.468 240.386C175.917 240.386 174.82 240.717 174.177 241.379C173.534 242.041 173.213 243.28 173.213 245.095V247.875H179.084V251.846H173.213V278H168.135ZM203.706 268.299L208.982 268.951C208.15 272.034 206.609 274.426 204.359 276.128C202.108 277.83 199.234 278.681 195.735 278.681C191.329 278.681 187.831 277.329 185.24 274.624C182.668 271.901 181.382 268.091 181.382 263.193C181.382 258.125 182.687 254.191 185.297 251.392C187.906 248.594 191.291 247.194 195.452 247.194C199.48 247.194 202.77 248.565 205.323 251.307C207.876 254.049 209.153 257.907 209.153 262.881C209.153 263.183 209.143 263.637 209.124 264.242H186.658C186.847 267.552 187.783 270.086 189.466 271.845C191.15 273.603 193.249 274.483 195.764 274.483C197.636 274.483 199.234 273.991 200.558 273.008C201.881 272.024 202.931 270.455 203.706 268.299ZM186.942 260.044H203.763C203.536 257.51 202.893 255.61 201.834 254.343C200.208 252.376 198.099 251.392 195.508 251.392C193.164 251.392 191.187 252.177 189.58 253.747C187.991 255.316 187.112 257.416 186.942 260.044ZM226.57 273.433L227.307 277.943C225.87 278.246 224.584 278.397 223.449 278.397C221.596 278.397 220.159 278.104 219.138 277.518C218.116 276.932 217.398 276.166 216.982 275.22C216.566 274.256 216.358 272.242 216.358 269.178V251.846H212.613V247.875H216.358V240.415L221.435 237.351V247.875H226.57V251.846H221.435V269.462C221.435 270.918 221.52 271.854 221.691 272.27C221.88 272.686 222.173 273.017 222.57 273.263C222.986 273.509 223.572 273.632 224.329 273.632C224.896 273.632 225.643 273.565 226.57 273.433ZM231.363 289.602L230.796 284.808C231.912 285.11 232.886 285.262 233.718 285.262C234.852 285.262 235.76 285.073 236.441 284.694C237.122 284.316 237.68 283.787 238.115 283.106C238.436 282.595 238.956 281.328 239.675 279.305C239.769 279.021 239.921 278.605 240.129 278.057L228.697 247.875H234.2L240.469 265.32C241.282 267.533 242.01 269.859 242.653 272.298C243.239 269.953 243.939 267.665 244.752 265.434L251.191 247.875H256.297L244.837 278.511C243.608 281.82 242.653 284.099 241.972 285.347C241.065 287.03 240.025 288.259 238.852 289.034C237.68 289.829 236.28 290.226 234.654 290.226C233.671 290.226 232.574 290.018 231.363 289.602ZM274.906 262.938C274.906 257.359 276.456 253.227 279.558 250.541C282.148 248.31 285.307 247.194 289.032 247.194C293.173 247.194 296.559 248.556 299.187 251.279C301.816 253.983 303.13 257.728 303.13 262.512C303.13 266.389 302.544 269.443 301.371 271.674C300.218 273.887 298.525 275.608 296.294 276.837C294.081 278.066 291.661 278.681 289.032 278.681C284.815 278.681 281.401 277.329 278.792 274.624C276.201 271.92 274.906 268.025 274.906 262.938ZM280.153 262.938C280.153 266.795 280.995 269.689 282.678 271.618C284.361 273.528 286.479 274.483 289.032 274.483C291.566 274.483 293.675 273.518 295.358 271.589C297.041 269.66 297.882 266.72 297.882 262.767C297.882 259.042 297.031 256.224 295.329 254.314C293.646 252.385 291.547 251.421 289.032 251.421C286.479 251.421 284.361 252.376 282.678 254.286C280.995 256.196 280.153 259.08 280.153 262.938ZM310.363 278V251.846H305.853V247.875H310.363V244.67C310.363 242.646 310.543 241.143 310.902 240.159C311.394 238.836 312.255 237.767 313.484 236.954C314.732 236.122 316.472 235.706 318.703 235.706C320.14 235.706 321.729 235.876 323.469 236.217L322.703 240.67C321.644 240.481 320.641 240.386 319.696 240.386C318.145 240.386 317.048 240.717 316.405 241.379C315.762 242.041 315.441 243.28 315.441 245.095V247.875H321.313V251.846H315.441V278H310.363ZM96.2266 359V317.415H127.061V324.45H104.623V333.669H125.501V340.675H104.623V351.994H127.855V359H96.2266ZM134.861 359V317.415H147.428L154.973 345.781L162.433 317.415H175.028V359H167.227V326.265L158.973 359H150.888L142.662 326.265V359H134.861ZM183.396 359V317.415H201.068C205.512 317.415 208.737 317.793 210.741 318.55C212.765 319.287 214.381 320.611 215.592 322.521C216.802 324.431 217.407 326.615 217.407 329.074C217.407 332.194 216.49 334.775 214.656 336.818C212.821 338.841 210.079 340.118 206.429 340.647C208.245 341.706 209.739 342.869 210.911 344.136C212.103 345.403 213.701 347.653 215.705 350.887L220.783 359H210.741L204.671 349.951C202.515 346.717 201.04 344.684 200.246 343.852C199.451 343.001 198.61 342.425 197.721 342.122C196.832 341.801 195.423 341.64 193.494 341.64H191.792V359H183.396ZM191.792 335.002H198.005C202.033 335.002 204.548 334.832 205.55 334.492C206.552 334.151 207.337 333.565 207.905 332.733C208.472 331.901 208.756 330.861 208.756 329.613C208.756 328.213 208.377 327.088 207.621 326.237C206.883 325.367 205.834 324.819 204.472 324.592C203.791 324.497 201.749 324.45 198.345 324.45H191.792V335.002ZM239.391 345.469L247.561 344.675C248.052 347.417 249.045 349.431 250.539 350.717C252.052 352.003 254.085 352.646 256.638 352.646C259.342 352.646 261.375 352.079 262.736 350.944C264.117 349.79 264.807 348.448 264.807 346.916C264.807 345.933 264.514 345.101 263.928 344.42C263.361 343.72 262.358 343.115 260.921 342.604C259.938 342.264 257.697 341.659 254.198 340.789C249.697 339.673 246.539 338.302 244.724 336.676C242.171 334.388 240.894 331.598 240.894 328.308C240.894 326.19 241.49 324.214 242.682 322.379C243.892 320.526 245.622 319.117 247.873 318.153C250.142 317.188 252.874 316.706 256.07 316.706C261.29 316.706 265.214 317.85 267.842 320.138C270.49 322.426 271.88 325.481 272.012 329.301L263.616 329.669C263.257 327.532 262.481 326.001 261.29 325.074C260.117 324.128 258.349 323.656 255.985 323.656C253.546 323.656 251.636 324.157 250.255 325.159C249.367 325.802 248.922 326.662 248.922 327.74C248.922 328.724 249.338 329.565 250.17 330.265C251.229 331.154 253.801 332.08 257.886 333.045C261.971 334.009 264.987 335.012 266.935 336.052C268.901 337.073 270.433 338.482 271.53 340.278C272.646 342.056 273.204 344.259 273.204 346.888C273.204 349.27 272.542 351.502 271.218 353.582C269.894 355.662 268.022 357.213 265.601 358.234C263.181 359.236 260.165 359.738 256.553 359.738C251.295 359.738 247.258 358.527 244.44 356.107C241.623 353.667 239.939 350.121 239.391 345.469ZM278.366 343.512C278.366 340.865 279.019 338.302 280.324 335.825C281.628 333.347 283.472 331.456 285.855 330.152C288.257 328.847 290.933 328.194 293.883 328.194C298.44 328.194 302.175 329.679 305.087 332.648C308 335.598 309.456 339.333 309.456 343.852C309.456 348.41 307.981 352.192 305.031 355.199C302.099 358.187 298.402 359.681 293.939 359.681C291.178 359.681 288.54 359.057 286.025 357.809C283.529 356.561 281.628 354.736 280.324 352.334C279.019 349.913 278.366 346.973 278.366 343.512ZM286.536 343.938C286.536 346.925 287.245 349.214 288.663 350.802C290.082 352.391 291.831 353.185 293.911 353.185C295.991 353.185 297.731 352.391 299.13 350.802C300.549 349.214 301.258 346.907 301.258 343.881C301.258 340.931 300.549 338.661 299.13 337.073C297.731 335.484 295.991 334.69 293.911 334.69C291.831 334.69 290.082 335.484 288.663 337.073C287.245 338.661 286.536 340.95 286.536 343.938ZM312.236 328.875H316.661V326.606C316.661 324.072 316.926 322.181 317.455 320.932C318.003 319.684 318.996 318.673 320.433 317.897C321.89 317.103 323.724 316.706 325.937 316.706C328.206 316.706 330.428 317.046 332.603 317.727L331.525 323.287C330.258 322.984 329.038 322.833 327.865 322.833C326.712 322.833 325.88 323.107 325.369 323.656C324.878 324.185 324.632 325.216 324.632 326.748V328.875H330.589V335.144H324.632V359H316.661V335.144H312.236V328.875ZM348.885 328.875V335.229H343.438V347.37C343.438 349.828 343.486 351.265 343.58 351.682C343.694 352.079 343.93 352.41 344.289 352.674C344.668 352.939 345.122 353.071 345.651 353.071C346.389 353.071 347.457 352.816 348.856 352.306L349.537 358.489C347.684 359.284 345.585 359.681 343.24 359.681C341.803 359.681 340.507 359.444 339.354 358.972C338.2 358.48 337.349 357.856 336.801 357.099C336.271 356.324 335.903 355.284 335.695 353.979C335.524 353.053 335.439 351.18 335.439 348.363V335.229H331.78V328.875H335.439V322.89L343.438 318.238V328.875H348.885ZM360.033 359L350.502 328.875H358.246L363.891 348.618L369.082 328.875H376.769L381.79 348.618L387.548 328.875H395.405L385.733 359H378.074L372.883 339.626L367.777 359H360.033ZM405.589 338.066L398.356 336.761C399.169 333.849 400.568 331.693 402.554 330.293C404.539 328.894 407.49 328.194 411.404 328.194C414.959 328.194 417.607 328.62 419.347 329.471C421.086 330.303 422.306 331.371 423.006 332.676C423.724 333.962 424.084 336.335 424.084 339.796L423.999 349.1C423.999 351.748 424.122 353.705 424.367 354.972C424.632 356.22 425.114 357.563 425.814 359H417.928C417.72 358.47 417.465 357.686 417.162 356.646C417.03 356.173 416.935 355.861 416.879 355.71C415.517 357.033 414.061 358.026 412.51 358.688C410.96 359.35 409.305 359.681 407.546 359.681C404.445 359.681 401.996 358.839 400.199 357.156C398.422 355.473 397.533 353.346 397.533 350.774C397.533 349.072 397.94 347.559 398.753 346.235C399.566 344.893 400.701 343.871 402.157 343.172C403.632 342.453 405.75 341.829 408.511 341.299C412.236 340.6 414.817 339.947 416.255 339.342V338.548C416.255 337.016 415.876 335.929 415.12 335.286C414.364 334.624 412.936 334.293 410.837 334.293C409.418 334.293 408.312 334.577 407.518 335.144C406.724 335.692 406.081 336.666 405.589 338.066ZM416.255 344.533C415.234 344.874 413.617 345.28 411.404 345.753C409.191 346.226 407.745 346.689 407.064 347.143C406.024 347.88 405.504 348.817 405.504 349.951C405.504 351.067 405.92 352.031 406.752 352.845C407.584 353.658 408.643 354.064 409.929 354.064C411.366 354.064 412.737 353.592 414.042 352.646C415.007 351.927 415.64 351.048 415.943 350.008C416.151 349.327 416.255 348.032 416.255 346.122V344.533ZM439.6 359H431.629V328.875H439.033V333.158C440.3 331.135 441.434 329.802 442.437 329.159C443.458 328.516 444.611 328.194 445.897 328.194C447.713 328.194 449.462 328.695 451.145 329.698L448.677 336.647C447.335 335.777 446.087 335.343 444.933 335.343C443.817 335.343 442.872 335.655 442.096 336.279C441.321 336.884 440.706 337.99 440.253 339.597C439.818 341.205 439.6 344.571 439.6 349.696V359ZM472.051 349.412L479.994 350.745C478.972 353.658 477.356 355.88 475.143 357.411C472.949 358.924 470.198 359.681 466.888 359.681C461.65 359.681 457.773 357.969 455.258 354.546C453.273 351.804 452.28 348.344 452.28 344.164C452.28 339.172 453.585 335.267 456.194 332.449C458.804 329.613 462.104 328.194 466.094 328.194C470.576 328.194 474.112 329.679 476.703 332.648C479.294 335.598 480.533 340.127 480.419 346.235H460.449C460.506 348.599 461.149 350.443 462.378 351.767C463.607 353.071 465.139 353.724 466.974 353.724C468.222 353.724 469.271 353.383 470.122 352.703C470.973 352.022 471.616 350.925 472.051 349.412ZM472.505 341.356C472.448 339.049 471.853 337.3 470.718 336.108C469.583 334.898 468.203 334.293 466.576 334.293C464.837 334.293 463.399 334.927 462.265 336.194C461.13 337.461 460.572 339.181 460.591 341.356H472.505ZM484.135 350.405L492.134 349.185C492.475 350.736 493.165 351.918 494.205 352.731C495.245 353.525 496.701 353.922 498.574 353.922C500.635 353.922 502.186 353.544 503.226 352.788C503.925 352.258 504.275 351.549 504.275 350.66C504.275 350.055 504.086 349.554 503.708 349.157C503.311 348.779 502.422 348.429 501.041 348.107C494.612 346.689 490.536 345.394 488.816 344.221C486.433 342.595 485.241 340.335 485.241 337.442C485.241 334.832 486.272 332.638 488.333 330.861C490.395 329.083 493.591 328.194 497.921 328.194C502.044 328.194 505.107 328.866 507.112 330.208C509.116 331.551 510.497 333.537 511.253 336.165L503.736 337.555C503.415 336.383 502.8 335.484 501.892 334.86C501.004 334.236 499.727 333.924 498.063 333.924C495.964 333.924 494.46 334.217 493.553 334.804C492.948 335.22 492.645 335.759 492.645 336.42C492.645 336.988 492.91 337.47 493.439 337.867C494.158 338.397 496.635 339.144 500.871 340.108C505.126 341.073 508.095 342.254 509.778 343.654C511.442 345.072 512.274 347.048 512.274 349.582C512.274 352.343 511.121 354.717 508.814 356.702C506.507 358.688 503.093 359.681 498.574 359.681C494.47 359.681 491.217 358.849 488.816 357.185C486.433 355.52 484.873 353.261 484.135 350.405Z" fill="#273C99"/>
<path opacity="0.4" d="M1211.6 634.77C1430.3 622.355 1577.15 749.884 1613.81 775.308C1923.15 989.842 1838.26 1149.69 1844.56 1260.69L858.974 2002.42L-753.196 -139.778C-733.316 -151.43 -652.927 -166.704 -490.401 -134.59C-287.244 -94.4478 -199.047 54.192 -70.12 249.473C58.8068 444.754 214.574 496.819 338.283 499.286C541.467 503.338 656.885 612.941 804.055 678.898C951.226 744.854 1054.45 643.691 1211.6 634.77Z" fill="#FFDFDF"/>
<path opacity="0.4" d="M1298.12 600.407C1473.4 544.193 1642.9 593.266 1799.69 749.902C2089.64 1039.57 1851.81 1126.83 1863.26 1246.62L858.975 2002.42L-929.656 -374.251C-909.256 -385.932 -836.05 -369.607 -653.052 -357.24C-498.311 -346.782 -398.212 -330.571 -78.8167 116.808C71.9208 327.947 60.361 497.575 280.792 594.645C403.737 648.785 695.827 524.757 912.608 620.086C1129.39 715.416 1137.57 651.898 1298.12 600.407Z" fill="url(#paint0_linear_3203_25133)"/>
<path d="M1439.16 689.976C1557.69 662.728 1755.34 701.946 1885.39 805.104C2075.91 956.234 2259.14 1095.87 2248.98 1184.53L968.613 2148.1L-729.177 -107.864C-708.207 -120.386 -747 -229.393 -594.55 -176.582C-360.218 -95.4065 -28.9572 298.573 83.2021 487.993C200.717 686.457 456.098 701.299 586.679 684.996C771.899 661.871 880.967 705.515 985.614 758.563C1118.48 825.914 1272.85 728.205 1439.16 689.976Z" fill="url(#paint1_linear_3203_25133)"/>
<path d="M1251.93 195.709V614.449H660.762L661.027 142.879L897.739 142.525L956.354 198.417L1251.93 195.709Z" fill="#6772C1"/>
<path d="M1194.46 228.756V533.283H705.402V304.387L786.701 228.756H1194.46Z" fill="#C6CBF7"/>
<path d="M786.701 228.756V304.387H705.402L786.701 228.756Z" fill="#ABB1D3"/>
<path d="M661.027 336.256L660.762 614.45H1251.93V266.057H905.04L841.141 338.7L661.027 336.256Z" fill="#858CDD"/>
<path d="M1134.38 534.149C1176.57 491.955 1176.57 423.545 1134.38 381.351C1092.18 339.157 1023.77 339.157 981.579 381.351C939.385 423.545 939.385 491.955 981.579 534.149C1023.77 576.343 1092.18 576.343 1134.38 534.149Z" fill="white"/>
<path d="M1130.54 482.963L1130.05 431.254L985.507 432.616L985.994 484.325L1130.54 482.963Z" fill="#6772C1"/>
<path d="M1083.17 385.19L1031.46 385.678L1032.83 530.222L1084.54 529.734L1083.17 385.19Z" fill="#6772C1"/>
<path d="M864.875 390.766H693.828V407.502H864.875V390.766Z" fill="#6772C1"/>
<path d="M896.491 550.994H690.234V589.09H896.491V550.994Z" fill="#6772C1"/>
<path d="M864.875 422.385H693.828V439.121H864.875V422.385Z" fill="#6772C1"/>
<path d="M864.875 455.445H693.828V472.182H864.875V455.445Z" fill="#6772C1"/>
<path d="M1250.91 288.567C1247.76 285.293 1245.63 281.177 1244.78 276.718C1244.72 276.298 1244.76 275.87 1244.88 275.464C1245 275.058 1245.21 274.683 1245.48 274.364C1245.76 274.045 1246.11 273.791 1246.5 273.618C1246.88 273.445 1247.3 273.357 1247.73 273.361C1251.82 273.582 1259.71 274.186 1270.63 275.746C1272.48 276.014 1274.24 276.758 1275.71 277.906C1277.19 279.055 1278.35 280.567 1279.07 282.296C1281.66 288.508 1283.28 300.461 1270.53 306.305L1266.67 288.037L1250.91 288.567Z" fill="#2B2D47"/>
<path d="M1258.95 322.038H1271.24L1270.82 306.42L1270.75 303.653L1262.52 303.256L1259.71 303.123L1259.64 304.566L1259.17 316.165L1258.95 322.038Z" fill="#FDA88C"/>
<path d="M1270.84 306.623C1270.84 306.623 1264.49 315.602 1254.32 312.585C1244.15 309.567 1252.85 283.145 1252.85 283.145L1271.23 284.219L1270.84 306.623Z" fill="#FDA88C"/>
<path d="M1266.74 288.032C1266.74 288.032 1251.72 291.992 1250.08 287.767C1248.45 283.543 1254.2 279.568 1254.2 279.568L1272.65 282.63L1271.45 298.439C1269 295.441 1267.38 291.853 1266.74 288.032Z" fill="#2B2D47"/>
<path d="M1270.52 294.983C1270.53 294.76 1270.59 294.542 1270.71 294.351C1270.82 294.16 1270.99 294.003 1271.18 293.894C1272.43 293.217 1275.17 292.23 1276.23 295.086C1277.63 298.84 1273.29 301.872 1270.34 301.725L1270.52 294.983Z" fill="#FDA88C"/>
<path d="M1286.16 595.158C1286.16 595.158 1285.44 603.858 1294.05 604.564C1302.66 605.271 1305.49 611.144 1305.49 613.573L1283.63 612.969V614.441H1275.12V593.539H1285.95L1286.16 595.158Z" fill="#192551"/>
<path d="M1224.01 595.123C1224.01 595.123 1224.72 603.823 1216.12 604.529C1207.52 605.236 1204.68 611.109 1204.68 613.538L1226.54 612.934V614.406H1235.05V593.504H1224.22L1224.01 595.123Z" fill="#192551"/>
<path d="M1283.02 397.274C1283.02 397.274 1288 528.577 1286.47 596.907H1274.94C1274.94 596.907 1263.91 481.222 1260.48 423.623V391.475L1283.02 397.274Z" fill="#2F3B77"/>
<path d="M1266.23 408.55C1266.23 408.55 1247.52 475.909 1235.68 596.966H1223.42C1223.42 596.966 1227.23 439.3 1239.83 393.918L1263.5 391.475L1266.23 408.55Z" fill="#2F3B77"/>
<path d="M1229.8 495.896C1229.29 502.093 1231.28 507.318 1234.22 507.569C1237.16 507.819 1240.03 503.005 1240.56 496.808C1241.09 490.611 1239.09 485.4 1236.15 485.15C1233.2 484.9 1230.33 489.64 1229.8 495.896Z" fill="#556FB7"/>
<path d="M1272.26 496.043C1272 502.255 1274.19 507.392 1277.18 507.525C1280.17 507.657 1282.8 502.726 1283.07 496.514C1283.33 490.303 1281.14 485.18 1278.15 485.048C1275.16 484.915 1272.54 489.846 1272.26 496.043Z" fill="#556FB7"/>
<path d="M1234.29 403.16C1243.59 405.148 1253.03 406.442 1262.52 407.032C1270.03 407.601 1277.58 407.483 1285.07 406.678L1284.72 354.422V344.428L1285.1 321.42C1283.63 319.448 1280.39 318.726 1277.74 318.476C1276.23 318.334 1274.7 318.31 1273.18 318.403C1263.18 321.42 1258.74 317.608 1258.74 317.608C1254.06 315.728 1248.91 315.378 1244.02 316.607C1243.5 316.739 1243.22 316.842 1243.22 316.842L1243.08 318.094L1240.22 345.885L1234.29 403.16Z" fill="#A1C8D1"/>
<path d="M1294.08 474.655C1294.08 474.655 1280.24 481 1274.27 460.818C1268.29 440.637 1271.32 436.898 1269.85 408.857C1268.38 380.815 1271.32 318.388 1271.32 318.388C1273.69 317.601 1276.22 317.469 1278.65 318.005C1281.09 318.542 1283.33 319.727 1285.14 321.435C1285.14 321.435 1289.56 383.435 1290.75 399.451C1291.94 415.466 1294.08 474.655 1294.08 474.655Z" fill="#E2E2E2"/>
<path d="M1258.64 317.591C1254.55 336.968 1251.76 356.593 1250.28 376.339C1248.02 407.737 1247.33 461.936 1235.32 467.603C1223.31 473.27 1218.86 471.71 1218.86 471.71C1218.86 471.71 1229.71 401.805 1232.33 384.612C1234.95 367.419 1243.18 316.9 1243.18 316.9C1245.57 315.593 1248.28 314.967 1251.01 315.089C1253.73 315.211 1256.37 316.076 1258.64 317.591Z" fill="#E2E2E2"/>
<path d="M1269.7 365.685C1269.7 365.685 1277.06 348.109 1277.06 345.489C1277.06 342.869 1272.94 337.275 1272.94 337.275C1274.09 336.783 1275.05 335.938 1275.69 334.86C1276.33 333.783 1276.61 332.53 1276.49 331.284C1275.77 326.664 1274.71 322.103 1273.32 317.639L1271.26 318.389L1269.7 365.685Z" fill="#BABABA"/>
<path d="M1257.19 316.9C1257.19 316.9 1248.02 329.236 1249.15 332.224C1250.29 335.212 1251.39 335.771 1251.39 335.771C1249.66 338.626 1248.34 341.707 1247.46 344.927C1246.15 349.976 1251.2 365.123 1251.2 365.123L1259.43 317.46L1257.19 316.9Z" fill="#BABABA"/>
<path d="M1267.09 307.277C1265.08 309.883 1262.44 311.939 1259.43 313.254L1259.23 317.92C1259.23 317.92 1266.11 316.904 1267.09 307.277Z" fill="#2B2D47"/>
<path d="M1261.03 297.972C1261.64 297.972 1262.13 297.477 1262.13 296.868C1262.13 296.258 1261.64 295.764 1261.03 295.764C1260.42 295.764 1259.93 296.258 1259.93 296.868C1259.93 297.477 1260.42 297.972 1261.03 297.972Z" fill="#2B2D47"/>
<path d="M1252.59 297.618C1253.2 297.618 1253.7 297.124 1253.7 296.514C1253.7 295.904 1253.2 295.41 1252.59 295.41C1251.98 295.41 1251.49 295.904 1251.49 296.514C1251.49 297.124 1251.98 297.618 1252.59 297.618Z" fill="#2B2D47"/>
<path d="M1261.28 300.9C1263.39 300.9 1265.11 299.187 1265.11 297.073C1265.11 294.96 1263.39 293.246 1261.28 293.246C1259.17 293.246 1257.45 294.96 1257.45 297.073C1257.45 299.187 1259.17 300.9 1261.28 300.9Z" stroke="#2B2D47" stroke-width="1.4375" stroke-miterlimit="10"/>
<path d="M1251.73 300.356C1253.85 300.356 1255.56 298.642 1255.56 296.528C1255.56 294.415 1253.85 292.701 1251.73 292.701C1249.62 292.701 1247.91 294.415 1247.91 296.528C1247.91 298.642 1249.62 300.356 1251.73 300.356Z" stroke="#2B2D47" stroke-width="1.4375" stroke-miterlimit="10"/>
<path d="M1257.46 297.075L1255.78 296.986" stroke="#2B2D47" stroke-width="1.4375" stroke-miterlimit="10"/>
<path d="M1257.84 304.844L1253.91 305.226C1253.91 305.226 1255.04 308.259 1256.85 307.523C1257.33 307.293 1257.7 306.884 1257.89 306.384C1258.07 305.883 1258.05 305.331 1257.84 304.844Z" fill="#2B2D47"/>
<path d="M1270.84 326.234L1264.09 319.331L1271.2 318.389L1270.84 326.234Z" fill="#2B2D47"/>
<path d="M1258.31 324.748L1264.09 319.331L1258.63 317.594L1258.31 324.748Z" fill="#2B2D47"/>
<path d="M1264.13 321.552L1266.34 398.847L1259.5 403.749L1252.89 393.224L1262.19 321.067L1264.63 320.816L1264.13 321.552Z" fill="#2B2D47"/>
<path d="M1267.23 320.686L1264.28 326.706L1263.12 326.471L1260.87 321.289L1263.02 319.229L1265.03 319.273L1267.23 320.686Z" fill="#2B2D47"/>
<path d="M1289.66 378.887L1287.35 381.08C1287.35 381.08 1279.99 381.463 1277.43 383.111C1274.63 384.966 1281.99 383.42 1281.99 383.42C1279.06 386.762 1275.41 389.398 1271.32 391.134C1264.7 393.842 1275.83 397.449 1288.18 388.19C1288.18 388.19 1292.24 382.994 1294.49 381.831L1289.66 378.887Z" fill="#FDA88C"/>
<path d="M1295.19 361.297L1285.8 379.285L1292.22 387.867C1300.26 377.18 1307.87 366.229 1311.36 361.15C1311.87 360.418 1312.21 359.583 1312.37 358.704C1312.53 357.824 1312.49 356.921 1312.27 356.057C1312.16 355.65 1312 355.255 1311.81 354.879C1304.45 340.233 1285.01 321.436 1285.01 321.436L1284.77 322.908L1281.5 344.06L1294.56 357.176C1295.09 357.709 1295.43 358.394 1295.54 359.134C1295.66 359.874 1295.53 360.631 1295.19 361.297Z" fill="#E2E2E2"/>
<path d="M1287.08 349.415L1284.65 338.949L1293.81 355.951L1287.08 349.415Z" fill="#2B2D47"/>
<path d="M1204.04 326.615C1203.88 326.483 1201.73 324.466 1201.73 324.466C1201.73 324.466 1200.81 317.106 1198.97 314.721C1196.94 312.057 1198.97 319.285 1198.97 319.285C1195.43 316.608 1192.54 313.16 1190.53 309.201C1187.33 302.798 1184.55 314.162 1194.62 325.805C1194.62 325.805 1200.11 329.471 1201.43 331.693L1204.04 326.615Z" fill="#FDA88C"/>
<path d="M1197.01 330.576L1215.72 358.882C1216.25 359.684 1216.96 360.359 1217.78 360.859C1218.6 361.359 1219.52 361.671 1220.48 361.774C1221.44 361.876 1222.41 361.767 1223.32 361.453C1224.23 361.139 1225.06 360.628 1225.75 359.957L1240.17 345.87L1243.87 342.278L1243.19 317.784V316.783C1243.19 316.783 1235.11 324.246 1223.32 341.689C1223.11 341.995 1222.84 342.25 1222.52 342.436C1222.21 342.622 1221.85 342.734 1221.48 342.764C1221.12 342.793 1220.75 342.74 1220.41 342.607C1220.06 342.475 1219.76 342.267 1219.5 341.999L1203.19 324.099L1202.61 324.732L1197.01 330.576Z" fill="#E2E2E2"/>
<path d="M1238.31 347.919L1241.48 335.584L1231.58 353.719L1238.31 347.919Z" fill="#2B2D47"/>
<path opacity="0.39" d="M572.962 153.992H533.91V190.601H572.962V153.992Z" fill="#73A2F4"/>
<path d="M568.351 158.645H538.867V180.636H568.351V158.645Z" fill="white"/>
<path d="M554.749 183.801H547.109V186.259H554.749V183.801Z" fill="#4AED90"/>
<path d="M545.064 183.42H539.809V186.717H545.064V183.42Z" fill="#4AED90"/>
<path d="M555.263 180.357L551.244 165.283L547.652 174.145L546.651 170.774H544.223V169.552H547.564L547.829 170.45L551.48 161.441L555.057 174.822L555.984 169.861H558.972L561.18 164.856L562.284 169.861H563.859V171.083H561.298L560.783 168.772L559.767 171.083H557L555.263 180.357Z" fill="#73A2F4"/>
<path opacity="0.39" d="M573.054 219.822H535.047V257.829H573.054V219.822Z" fill="#73A2F4"/>
<path d="M569.616 228.902H560.445V251.969H569.616V228.902Z" fill="#4AED90"/>
<path d="M558.639 234.645H549.469V251.97H558.639V234.645Z" fill="#73A2F4"/>
<path d="M547.639 240.326H538.469V251.984H547.639V240.326Z" fill="#4AED90"/>
<path d="M497.595 559.281L506.824 620.075L503.041 620.016L489.16 561.96L497.595 559.281Z" fill="#7D87C9"/>
<path d="M467.064 559.281L457.82 620.075L461.618 620.016L475.499 561.96L467.064 559.281Z" fill="#7D87C9"/>
<path d="M462.31 525.779C460.921 521.967 460.676 517.834 461.603 513.885C462.781 509.719 458.969 505.259 456.584 502.948C455.541 501.852 454.845 500.472 454.584 498.982C454.322 497.492 454.505 495.958 455.112 494.572C455.104 494.519 455.104 494.464 455.112 494.41C457.364 489.641 451.638 481.059 451.638 481.059C451.638 481.059 450.666 478.115 453.434 477.836C456.201 477.556 459.616 478.336 459.925 481.648C460.234 484.96 460.323 488.714 463.856 488.714C467.388 488.714 469.258 490.186 469.258 494.499C469.258 498.812 468.743 502.403 471.642 502.653C474.542 502.904 491.779 513.885 478.649 534.787L465.269 534.964L462.31 525.779Z" fill="#468CF2"/>
<path d="M473.278 528.953C473.278 528.953 466.816 496.01 457.469 485.146C457.469 485.146 470.216 510.17 472.1 529.792L473.278 528.953Z" fill="white"/>
<path d="M501.979 522.393C503.136 518.497 503.136 514.35 501.979 510.455C500.507 506.421 504.098 501.623 506.395 499.047C507.356 497.87 507.954 496.439 508.116 494.928C508.278 493.418 507.997 491.892 507.307 490.538L507.219 490.377C504.687 485.872 509.883 476.716 509.883 476.716C509.883 476.716 510.678 473.772 507.896 473.684C505.114 473.596 501.773 474.832 501.655 478.174C501.537 481.515 501.655 485.254 498.151 485.622C494.648 485.99 492.867 487.712 493.117 491.952C493.367 496.191 494.103 499.768 491.233 500.327C488.363 500.887 473.26 512.53 484.447 530.577C484.843 531.308 485.436 531.913 486.16 532.322C486.884 532.731 487.709 532.927 488.539 532.888L496.341 532.167C497.397 531.972 498.368 531.458 499.123 530.695C499.878 529.932 500.382 528.956 500.566 527.898L501.979 522.393Z" fill="#0066CC"/>
<path d="M491.105 527.719C492.959 512.556 497.056 497.753 503.264 483.795C503.264 483.795 492.784 511.807 493.313 528.279L491.105 527.719Z" fill="white"/>
<path d="M468.283 509.853C468.283 509.853 468.681 501.3 473.303 495.898C477.925 490.496 472.243 476.527 472.243 476.527C472.243 476.527 471.433 472.626 476.07 469.019C480.707 465.413 478.896 451.355 478.896 451.355C478.896 451.355 479.294 447.352 482.341 449.118C485.388 450.884 488.509 454.505 487.243 458.48C485.977 462.454 484.299 466.723 487.92 469.49C491.541 472.258 492.792 475.378 490.746 480.207C488.7 485.035 486.33 488.7 489.274 491.247C492.218 493.793 504.789 519.568 481.046 532.889L467.047 528.827L468.283 509.853Z" fill="#73A2F4"/>
<path d="M482.033 533.022C482.033 533.022 481.489 503.582 483.299 457.229C483.299 457.229 477.014 516.874 481.018 532.83L482.033 533.022Z" fill="white"/>
<path d="M460.234 529.383V549.873C460.234 560.604 470.126 569.303 482.314 569.303C494.503 569.303 504.394 560.604 504.394 549.873V529.383H460.234Z" fill="#B3BAFF"/>
<path d="M504.409 529.383H460.234V536.007H504.409V529.383Z" fill="#7D87C9"/>
<path d="M459.834 533.873H504.627C506.009 533.873 507.129 532.753 507.129 531.371V529.663C507.129 528.281 506.009 527.161 504.627 527.161H459.834C458.452 527.161 457.331 528.281 457.331 529.663V531.371C457.331 532.753 458.452 533.873 459.834 533.873Z" fill="#B3BAFF"/>
<path d="M1345.98 415.406C1345.98 415.406 1323.71 448.629 1355.56 505.905C1355.56 505.905 1374.86 452.501 1345.98 415.406Z" fill="#9AF7B4"/>
<path d="M1391.82 464.572C1391.82 464.572 1367.53 469.4 1364.94 519.448C1364.94 519.448 1394.76 501.784 1391.82 464.572Z" fill="#9AF7B4"/>
<path d="M1321.15 459.256C1321.15 459.256 1346.74 464.82 1348.49 517.724C1348.55 517.724 1317.31 498.602 1321.15 459.256Z" fill="#9AF7B4"/>
<path d="M1386.6 398.258C1386.6 398.258 1357.14 412.433 1367.68 476.76C1367.68 476.76 1400.66 444.582 1386.6 398.258Z" fill="#9AF7B4"/>
<path d="M1360.83 546.517L1347.07 432.216L1347.73 432.113L1361.5 546.414L1360.83 546.517Z" fill="#1B1464"/>
<path d="M1360.64 546.781V546.546L1346.85 431.995L1347.96 431.848V432.083L1361.79 546.619L1360.64 546.781ZM1347.32 432.422L1361.03 546.237H1361.25L1347.54 432.422H1347.32Z" fill="#1B1464"/>
<path d="M1361.32 546.384L1325.37 469.001L1325.97 468.662L1361.92 546.06L1361.32 546.384Z" fill="#1B1464"/>
<path d="M1361.22 546.707L1361.12 546.501L1325.08 468.883L1326.08 468.338L1326.17 468.559L1362.22 546.163L1361.22 546.707ZM1325.69 469.103L1361.43 546.059L1361.62 545.942L1325.88 468.986L1325.69 469.103Z" fill="#1B1464"/>
<path d="M1351.35 549.386L1350.76 549.047L1385.66 473.99L1386.27 474.314L1351.35 549.386Z" fill="#1B1464"/>
<path d="M1351.49 549.713L1350.49 549.154L1385.61 473.67L1386.6 474.215L1386.49 474.435L1351.49 549.713ZM1351.09 548.948L1351.3 549.051L1385.99 474.435L1385.8 474.318L1351.09 548.948Z" fill="#1B1464"/>
<path d="M1347.35 570.247L1346.41 569.996L1379.69 419.484L1380.64 419.735L1347.35 570.247Z" fill="#1B1464"/>
<path d="M1347.44 570.393L1346.28 570.084V569.967L1379.62 419.352L1380.78 419.646V419.778L1347.44 570.393ZM1346.54 569.908L1347.26 570.099L1380.52 419.823L1379.78 419.631L1346.54 569.908Z" fill="#1B1464"/>
<path d="M1338.11 532.695H1377.13V598.155C1377.13 602.118 1375.55 605.918 1372.75 608.72C1369.95 611.522 1366.15 613.096 1362.19 613.096H1353.05C1349.08 613.096 1345.28 611.522 1342.48 608.72C1339.68 605.918 1338.11 602.118 1338.11 598.155V532.695Z" fill="#AFBFBD"/>
<path d="M1375.73 528.295H1339.24C1336.43 528.295 1334.16 530.569 1334.16 533.373V536.465C1334.16 539.269 1336.43 541.543 1339.24 541.543H1375.73C1378.53 541.543 1380.81 539.269 1380.81 536.465V533.373C1380.81 530.569 1378.53 528.295 1375.73 528.295Z" fill="#858988"/>
<path d="M954.824 604.353C956.523 600.906 956.834 596.939 955.693 593.269C954.221 589.383 958.946 585.232 961.89 583.083C963.112 582.239 963.969 580.965 964.291 579.516C964.614 578.066 964.376 576.549 963.627 575.267L963.539 575.12C960.756 570.704 967.807 562.681 967.807 562.681C967.807 562.681 969 559.987 965.599 559.737C962.199 559.487 957.989 560.208 957.592 563.299C957.194 566.391 957.121 569.879 952.764 569.879C948.406 569.879 946.11 571.351 946.11 575.252C946.11 579.153 946.743 582.612 943.166 582.862C939.589 583.112 918.363 593.328 934.525 612.803L950.997 612.965L954.824 604.353Z" fill="#54EF93"/>
<path d="M941.328 607.311C941.328 607.311 949.336 576.62 960.788 566.492C960.788 566.492 945.096 589.853 942.771 608.091L941.328 607.311Z" fill="white"/>
<path d="M905.972 601.129C904.546 597.557 904.546 593.573 905.972 590.001C907.723 586.247 903.381 581.743 900.614 579.373C899.46 578.436 898.704 577.097 898.496 575.626C898.289 574.154 898.646 572.658 899.495 571.439L899.598 571.306C902.704 567.097 896.315 558.559 896.315 558.559C896.315 558.559 895.344 555.792 898.759 555.733C902.174 555.674 906.31 556.807 906.457 559.928C906.605 563.048 906.457 566.522 910.756 566.861C915.054 567.2 917.277 568.804 916.967 572.749C916.658 576.694 915.746 580.035 919.278 580.551C922.811 581.066 941.358 591.914 927.639 608.739C927.031 609.471 926.257 610.047 925.381 610.421C924.506 610.794 923.555 610.955 922.605 610.888L912.993 610.211C911.833 610.131 910.722 609.714 909.796 609.011C908.87 608.307 908.17 607.348 907.782 606.252L905.972 601.129Z" fill="#2FC96D"/>
<path d="M919.38 606.164C916.996 591.704 911.912 577.822 904.395 565.242C904.395 565.242 917.289 591.341 916.7 606.605L919.38 606.164Z" fill="white"/>
<path d="M947.528 589.519C947.528 589.519 947.027 581.54 941.345 576.521C935.663 571.501 942.655 558.459 942.655 558.459C942.655 558.459 943.641 554.838 937.93 551.467C932.219 548.097 934.441 534.952 934.441 534.952C934.41 534.475 934.254 534.015 933.989 533.618C933.724 533.221 933.36 532.9 932.932 532.689C932.504 532.477 932.028 532.381 931.551 532.412C931.075 532.442 930.614 532.597 930.217 532.861C926.478 534.525 922.621 537.881 924.182 541.59C925.742 545.3 927.876 549.274 923.343 551.894C918.809 554.515 917.337 557.414 919.869 561.875C922.4 566.335 925.227 569.794 921.664 572.179C918.102 574.563 902.529 600.559 931.807 612.968L949.632 603.017L947.528 589.519Z" fill="#35DB78"/>
<path d="M930.494 611.095C930.494 611.095 931.156 583.628 928.934 540.439C928.934 540.439 936.662 596.022 931.745 610.889L930.494 611.095Z" fill="white"/>
<path d="M894.758 615.963C894.758 615.963 910.95 600.124 919.473 601.714C927.996 603.303 933.177 611.605 933.177 611.605L948.368 602.096C949.504 601.39 950.831 601.051 952.167 601.128C953.503 601.204 954.783 601.692 955.831 602.523C959.732 605.614 965.34 610.987 966.209 616.831L894.758 615.963Z" fill="#101826"/>
<path d="M1209.01 601.604C1210.71 598.152 1211.02 594.179 1209.88 590.505C1208.41 586.619 1213.13 582.468 1216.08 580.334C1217.3 579.49 1218.16 578.216 1218.48 576.766C1218.8 575.317 1218.56 573.799 1217.81 572.517L1217.73 572.37C1214.94 567.954 1221.99 559.932 1221.99 559.932C1221.99 559.932 1223.19 557.238 1219.79 556.914C1216.39 556.59 1212.18 557.4 1211.78 560.491C1211.38 563.582 1211.31 567.056 1206.95 567.056C1202.59 567.056 1200.3 568.528 1200.3 572.444C1200.3 576.359 1200.93 579.804 1197.35 580.054C1193.78 580.304 1172.55 590.505 1188.71 609.994L1205.18 610.156L1209.01 601.604Z" fill="#54EF93"/>
<path d="M1195.45 604.557C1195.45 604.557 1203.46 573.851 1214.91 563.738C1214.91 563.738 1199.22 587.099 1196.9 605.337L1195.45 604.557Z" fill="white"/>
<path d="M1160.13 598.378C1158.7 594.805 1158.7 590.823 1160.13 587.25C1161.88 583.496 1157.54 578.977 1154.77 576.607C1153.62 575.671 1152.87 574.335 1152.66 572.867C1152.45 571.399 1152.81 569.906 1153.65 568.688L1153.75 568.541C1156.86 564.346 1150.47 555.808 1150.47 555.808C1150.47 555.808 1149.5 553.026 1152.92 552.982C1156.33 552.938 1160.47 554.056 1160.61 557.177C1160.76 560.298 1160.61 563.757 1164.91 564.11C1169.21 564.463 1171.43 566.053 1171.12 569.998C1170.81 573.943 1169.9 577.358 1173.43 577.814C1176.97 578.271 1195.51 589.178 1181.8 605.988C1181.19 606.728 1180.42 607.309 1179.54 607.684C1178.67 608.058 1177.71 608.214 1176.76 608.138L1167.15 607.475C1165.98 607.404 1164.87 606.988 1163.94 606.28C1163.01 605.572 1162.32 604.605 1161.94 603.501L1160.13 598.378Z" fill="#2FC96D"/>
<path d="M1173.57 603.35C1171.2 588.911 1166.14 575.046 1158.66 562.473C1158.66 562.473 1171.55 588.571 1170.96 603.851L1173.57 603.35Z" fill="white"/>
<path d="M1201.71 586.747C1201.71 586.747 1201.21 578.784 1195.52 573.75C1189.84 568.715 1196.83 555.703 1196.83 555.703C1196.83 555.703 1197.82 552.067 1192.11 548.711C1186.4 545.355 1188.62 532.18 1188.62 532.18C1188.62 532.18 1188.15 528.456 1184.4 530.105C1180.64 531.753 1176.8 535.124 1178.36 538.834C1179.92 542.543 1182.06 546.518 1177.52 549.138C1172.99 551.758 1171.52 554.672 1174.05 559.133C1176.58 563.593 1179.41 567.052 1175.84 569.437C1172.28 571.821 1156.71 597.802 1185.99 610.226L1203.87 600.334L1201.71 586.747Z" fill="#35DB78"/>
<path d="M1184.73 608.344C1184.73 608.344 1185.39 580.861 1183.17 537.688C1183.17 537.688 1190.9 593.27 1185.98 608.137L1184.73 608.344Z" fill="white"/>
<path d="M1148.94 613.212C1148.94 613.212 1165.13 597.374 1173.65 598.949C1182.18 600.524 1187.36 608.855 1187.36 608.855L1202.55 599.331C1203.68 598.625 1205.01 598.288 1206.35 598.367C1207.69 598.446 1208.96 598.937 1210.01 599.773C1213.91 602.864 1219.52 608.222 1220.39 614.081L1148.94 613.212Z" fill="#101826"/>
<path opacity="0.39" d="M1363.13 211.992H1324.08V248.601H1363.13V211.992Z" fill="#73A2F4"/>
<path d="M1358.52 216.643H1329.04V238.634H1358.52V216.643Z" fill="white"/>
<path d="M1344.92 241.812H1337.28V244.271H1344.92V241.812Z" fill="#4AED90"/>
<path d="M1335.24 241.43H1329.98V244.727H1335.24V241.43Z" fill="#4AED90"/>
<path d="M1345.43 238.355L1341.42 223.281L1337.82 232.143L1336.82 228.772H1334.39V227.55H1337.74L1338 228.448L1341.65 219.439L1345.23 232.82L1346.16 227.859H1349.14L1351.35 222.869L1352.46 227.859H1354.03V229.096H1351.47L1350.95 226.785L1349.94 229.096H1347.17L1345.43 238.355Z" fill="#73A2F4"/>
<path opacity="0.39" d="M1363.23 277.82H1325.22V315.827H1363.23V277.82Z" fill="#73A2F4"/>
<path d="M1359.79 286.916H1350.62V309.982H1359.79V286.916Z" fill="#4AED90"/>
<path d="M1348.81 292.643H1339.64V309.968H1348.81V292.643Z" fill="#73A2F4"/>
<path d="M1337.81 298.324H1328.64V309.982H1337.81V298.324Z" fill="#4AED90"/>
<path opacity="0.22" d="M1054.33 118.783H1043.9C1040.68 118.783 1038.07 121.393 1038.07 124.612V135.049C1038.07 138.268 1040.68 140.878 1043.9 140.878H1054.33C1057.55 140.878 1060.16 138.268 1060.16 135.049V124.612C1060.16 121.393 1057.55 118.783 1054.33 118.783Z" fill="#5F9BF2"/>
<path d="M1050.28 137.373L1045.69 130.632C1045.59 130.483 1045.51 130.316 1045.48 130.14C1045.44 129.964 1045.44 129.782 1045.47 129.605C1045.51 129.428 1045.58 129.26 1045.68 129.11C1045.78 128.96 1045.91 128.832 1046.06 128.733C1046.36 128.529 1046.72 128.451 1047.08 128.517C1047.43 128.584 1047.75 128.788 1047.96 129.086L1050.65 133.031C1050.76 133.199 1050.92 133.34 1051.09 133.443C1051.27 133.546 1051.46 133.608 1051.67 133.625C1051.87 133.641 1052.07 133.613 1052.27 133.541C1052.46 133.469 1052.63 133.355 1052.77 133.208L1065.91 119.415C1066.04 119.287 1066.19 119.186 1066.36 119.117C1066.52 119.047 1066.7 119.012 1066.88 119.012C1067.06 119.012 1067.24 119.047 1067.4 119.117C1067.57 119.186 1067.72 119.287 1067.84 119.415C1067.97 119.541 1068.07 119.691 1068.14 119.857C1068.21 120.022 1068.25 120.2 1068.25 120.379C1068.25 120.559 1068.21 120.736 1068.14 120.902C1068.07 121.067 1067.97 121.217 1067.84 121.343L1052.36 137.535C1052.22 137.673 1052.05 137.779 1051.86 137.846C1051.68 137.913 1051.48 137.94 1051.28 137.925C1051.09 137.91 1050.89 137.852 1050.72 137.757C1050.55 137.662 1050.4 137.531 1050.28 137.373Z" fill="black"/>
<path opacity="0.22" d="M1220.43 111.055H1086.96V116.619H1220.43V111.055Z" fill="#4C7BC1"/>
<path opacity="0.22" d="M1220.43 122.393H1086.96V127.957H1220.43V122.393Z" fill="#4C7BC1"/>
<path opacity="0.22" d="M1220.43 133.725H1086.96V139.289H1220.43V133.725Z" fill="#4C7BC1"/>
<path opacity="0.22" d="M1220.43 144.115H1086.96V149.679H1220.43V144.115Z" fill="#4C7BC1"/>
<path opacity="0.22" d="M709.019 106.891L849.684 106.891V67.2055L709.019 67.2055V106.891Z" fill="#73A2F4"/>
<g opacity="0.49">
<path d="M717.584 100.424H727.652V72.5883H717.584V100.424Z" fill="#29344C"/>
<path d="M731.224 100.41H741.293V78.9042H731.224V100.41Z" fill="#29344C"/>
<path d="M744.873 100.41H754.941V87.589H744.873V100.41Z" fill="#29344C"/>
</g>
<path opacity="0.08" d="M770.004 86.5156L837.76 86.5156C839.606 86.5156 841.102 85.0196 841.102 83.1742V82.4235C841.102 80.578 839.606 79.082 837.76 79.082L770.004 79.082C768.159 79.082 766.663 80.578 766.663 82.4235V83.1742C766.663 85.0196 768.159 86.5156 770.004 86.5156Z" fill="#29344C"/>
<path d="M795.102 86.5156H837.76C839.606 86.5156 841.102 85.0196 841.102 83.1742V82.4235C841.102 80.578 839.606 79.082 837.76 79.082H795.102C793.256 79.082 791.76 80.578 791.76 82.4235V83.1742C791.76 85.0196 793.256 86.5156 795.102 86.5156Z" fill="#4AED90"/>
<path d="M770.004 100.164L837.76 100.164C839.606 100.164 841.102 98.6681 841.102 96.8226V96.0719C841.102 94.2265 839.606 92.7305 837.76 92.7305L770.004 92.7305C768.159 92.7305 766.663 94.2265 766.663 96.0719V96.8226C766.663 98.6681 768.159 100.164 770.004 100.164Z" fill="#73A2F4"/>
<path d="M634.98 520.877H622.145V608.122H634.98V520.877Z" fill="#C0CCC2"/>
<path d="M646.588 606.176H610.73V615.229H646.588V606.176Z" fill="#C0CCC2"/>
<path d="M663.981 514.385H593.134C591.142 514.385 589.527 515.999 589.527 517.991V521.642C589.527 523.633 591.142 525.248 593.134 525.248H663.981C665.973 525.248 667.588 523.633 667.588 521.642V517.991C667.588 515.999 665.973 514.385 663.981 514.385Z" fill="#252326"/>
<path d="M617.566 611.258L623.777 611.788C624.449 611.829 625.091 612.076 625.618 612.495C626.144 612.913 626.53 613.483 626.721 614.128C626.869 614.643 627.141 615.114 627.513 615.499C627.885 615.884 628.346 616.171 628.856 616.336C628.856 616.336 635.48 618.662 636.437 620.105C636.716 620.517 635.274 621.9 635.274 621.9L615.49 618.809C615.49 618.809 615.269 612.951 617.566 611.258Z" fill="#14143F"/>
<path d="M618.786 621.292L615.371 620.998L615.548 618.805L620.597 619.232L618.786 621.292Z" fill="#14143F"/>
<path d="M621.371 592.449C621.371 592.449 619.413 600.516 618.118 610.599C618.059 611.058 618.093 611.524 618.218 611.969C618.344 612.414 618.558 612.83 618.848 613.19C619.139 613.55 619.499 613.848 619.907 614.066C620.315 614.283 620.763 614.416 621.224 614.456C622.017 614.522 622.808 614.31 623.461 613.856C624.114 613.402 624.588 612.734 624.801 611.968C626.038 607.478 628.569 598.72 630.247 595.776L621.371 592.449Z" fill="#FD9578"/>
<path d="M640.513 611.43L646.74 611.621C647.394 611.65 648.024 611.874 648.549 612.265C649.074 612.656 649.469 613.196 649.684 613.814C649.865 614.316 650.164 614.767 650.556 615.128C650.948 615.489 651.421 615.751 651.936 615.89C651.936 615.89 658.678 617.848 659.708 619.231C660.017 619.643 658.663 621.101 658.663 621.101L638.85 619.084C638.85 619.084 638.335 613.255 640.513 611.43Z" fill="#14143F"/>
<path d="M642.305 621.397L638.875 621.294L638.934 619.086L643.998 619.248L642.305 621.397Z" fill="#14143F"/>
<path d="M643.35 592.449C643.35 592.449 641.878 600.604 641.098 610.761C641.066 611.221 641.127 611.683 641.278 612.119C641.429 612.554 641.666 612.955 641.975 613.298C642.284 613.64 642.659 613.916 643.077 614.11C643.496 614.304 643.949 614.411 644.41 614.426C645.21 614.458 645.995 614.207 646.628 613.717C647.261 613.227 647.7 612.529 647.869 611.747C648.856 607.199 650.902 598.352 652.418 595.334L643.35 592.449Z" fill="#FD9578"/>
<path d="M617.154 472.961L604.141 500.929C603.183 502.892 602.874 505.108 603.258 507.259C604.583 513.529 611.089 515.59 611.619 515.899L626.104 524.952C628.724 526.424 629.813 530.84 629.283 533.784L619.215 602.247L627.399 603.807L657.325 517.106L628.547 491.067L617.154 472.961Z" fill="#1C1C4F"/>
<path d="M609.805 502.46L635.27 510.851H635.447C639.587 512.224 643.1 515.032 645.351 518.768C647.602 522.504 648.444 526.921 647.723 531.223L643.307 557.41L641.673 603.351L650.182 603.822L673.321 523.363C674.012 521.243 673.996 518.957 673.277 516.847C672.558 514.737 671.174 512.917 669.332 511.66L637.567 479.88L614.324 469.223L609.805 502.46Z" fill="#1C1C4F"/>
<path d="M609.949 498.838C609.949 498.838 647.014 514.397 644.203 529.647C641.391 544.897 624.478 601.201 624.478 601.201" stroke="white" stroke-width="0.71875" stroke-miterlimit="10"/>
<path d="M637.566 505.641L637.492 507.54L638.11 510.277H638.287C642.429 511.648 645.944 514.455 648.195 518.192C650.447 521.929 651.287 526.348 650.564 530.65L646.148 556.837C646.545 555.924 656.157 533.005 657.526 522.186C658.998 511.19 637.566 505.641 637.566 505.641Z" fill="#14143F"/>
<path d="M645.308 431.451C645.308 431.451 647.119 428.125 646.383 419.131C645.647 410.137 654.42 392.267 641.643 393.371C641.643 393.371 642.438 388.116 637.727 388.866C633.017 389.617 619.151 390.5 617.738 401.614C616.325 412.727 623.096 422.943 610.613 433.807C598.131 444.67 601.619 472.447 618.12 466.971C634.622 461.495 645.308 431.451 645.308 431.451Z" fill="#231F3F"/>
<path d="M627.613 428.7L630.175 421.384L628.968 413.096L628.511 410.285L637.137 408.342L638.329 413.656L639.448 418.646L639.64 419.485L644.939 428.538L627.613 428.7Z" fill="#FD9578"/>
<path d="M645.251 404.192C645.855 404.383 646.385 404.756 646.769 405.259C647.153 405.763 647.372 406.372 647.397 407.005C647.421 407.638 647.25 408.263 646.907 408.795C646.563 409.326 646.064 409.739 645.477 409.977C644.89 410.215 644.244 410.265 643.627 410.122C643.011 409.979 642.453 409.649 642.031 409.178C641.608 408.706 641.342 408.115 641.267 407.487C641.193 406.858 641.314 406.221 641.615 405.664C641.913 404.996 642.458 404.469 643.136 404.195C643.814 403.92 644.572 403.919 645.251 404.192Z" fill="#FD9578"/>
<path d="M626.965 397.993L641.876 396.094L643.481 408.797C643.596 409.701 643.533 410.619 643.293 411.498C643.054 412.377 642.644 413.2 642.086 413.921C641.528 414.641 640.834 415.245 640.042 415.697C639.251 416.148 638.379 416.44 637.475 416.555L636.003 416.746C635.084 416.863 634.15 416.794 633.258 416.543C632.366 416.293 631.533 415.867 630.808 415.289C630.083 414.711 629.482 413.994 629.039 413.18C628.597 412.366 628.322 411.471 628.231 410.549L626.965 397.993Z" fill="#FD9578"/>
<path d="M627.144 404.883C627.144 404.883 631.265 406.561 627.909 413.362C624.553 420.162 625.907 419.912 625.907 419.912C625.907 419.912 621.727 410.918 621.727 410.344C621.727 409.77 627.144 404.883 627.144 404.883Z" fill="#231F3F"/>
<path d="M636.566 394.99C636.566 394.99 636.566 405.912 624.054 409.386L622.391 397.713L636.566 394.99Z" fill="#231F3F"/>
<path d="M633.152 397.169C633.152 397.169 636.096 402.321 646.076 403.837L642.617 393.533L631.43 394.475L633.152 397.169Z" fill="#231F3F"/>
<path d="M625.398 407.398C624.955 407.968 624.726 408.675 624.752 409.396C624.778 410.117 625.056 410.806 625.538 411.343C626.021 411.88 626.676 412.23 627.391 412.332C628.105 412.434 628.832 412.282 629.446 411.903C629.889 411.333 630.117 410.626 630.092 409.905C630.066 409.183 629.788 408.494 629.305 407.958C628.823 407.421 628.168 407.071 627.453 406.969C626.739 406.866 626.011 407.018 625.398 407.398Z" fill="#FD9578"/>
<path d="M630.004 413.244C630.004 413.244 633.772 417.763 639.057 416.321L640.087 420.913C640.087 420.913 634.287 423.342 630.004 413.244Z" fill="#C17263"/>
<path d="M628.53 408.341C628.348 408.129 628.122 407.959 627.868 407.843C627.614 407.726 627.337 407.666 627.058 407.666C626.778 407.666 626.502 407.726 626.248 407.843C625.994 407.959 625.768 408.129 625.586 408.341" stroke="#C17263" stroke-width="0.71875" stroke-miterlimit="10"/>
<path d="M627.687 407.828C627.415 407.992 627.204 408.24 627.084 408.535C626.965 408.829 626.944 409.155 627.025 409.462" stroke="#C17263" stroke-width="0.71875" stroke-miterlimit="10"/>
<path d="M643.043 405.293C643.043 405.293 644.854 404.116 645.486 405.5Z" fill="#FD9578"/>
<path d="M643.043 405.293C643.043 405.293 644.854 404.116 645.486 405.5" stroke="#C17263" stroke-width="0.71875" stroke-miterlimit="10"/>
<path d="M643.723 404.971C643.973 405.119 644.173 405.338 644.299 405.6C644.424 405.862 644.47 406.155 644.429 406.443" fill="#FD9578"/>
<path d="M643.723 404.971C643.973 405.119 644.173 405.338 644.299 405.6C644.424 405.862 644.47 406.155 644.429 406.443" stroke="#C17263" stroke-width="0.71875" stroke-miterlimit="10"/>
<path d="M716.506 470.358C720.58 471.805 724.913 472.382 729.224 472.05C736.79 471.565 745.887 470.255 738.895 467.973C731.903 465.691 727.325 469.754 727.119 468.311C726.913 466.869 729.092 464.47 726.103 465.22C723.115 465.971 720.922 465.22 716.285 464.705L716.506 470.358Z" fill="#FD9578"/>
<path d="M668.698 464.808C669.042 465 669.408 465.149 669.788 465.25L670.259 465.382L670.715 465.515H670.803C679.4 467.876 688.143 469.666 696.976 470.873C702.599 471.623 707.28 472.006 710.827 472.183C712.299 472.271 713.491 472.301 714.537 472.315C716.965 472.389 718.275 472.315 718.275 472.315L718.025 463.689C718.025 463.689 716.641 463.542 714.272 463.233C706.75 462.276 689.409 459.627 676.279 454.695L674.969 454.195C674.513 454.033 674.071 453.871 673.644 453.695C672.192 453.118 670.571 453.128 669.126 453.725C667.682 454.321 666.525 455.455 665.902 456.889C665.545 457.715 665.374 458.609 665.401 459.509C665.407 459.941 665.467 460.372 665.578 460.79C665.772 461.647 666.152 462.451 666.692 463.146C667.231 463.84 667.916 464.408 668.698 464.808Z" fill="#E8E8E8"/>
<path opacity="0.85" d="M714.301 463.307C716.671 463.616 718.054 463.763 718.054 463.763L718.305 472.389C718.305 472.389 716.995 472.389 714.566 472.389L714.301 463.307Z" fill="white"/>
<path d="M640.102 427.286C640.102 427.286 643.458 437.87 656.073 451.736C658.222 454.091 660.675 456.545 663.433 459.096C663.801 459.42 664.169 459.744 664.522 460.082L664.669 460.2L665.052 460.495C665.7 460.949 666.433 461.267 667.207 461.432C667.981 461.596 668.78 461.603 669.556 461.451C670.598 461.263 671.572 460.805 672.382 460.123C673.191 459.441 673.808 458.559 674.171 457.565C674.535 456.57 674.631 455.498 674.452 454.455C674.272 453.412 673.823 452.434 673.148 451.618C673.113 451.558 673.068 451.503 673.015 451.457C668.349 446.363 664.655 441.727 661.534 437.929C658.737 434.529 653.983 427.787 651.804 425.991C645.636 420.824 640.102 427.286 640.102 427.286Z" fill="#E8E8E8"/>
<path d="M613.766 490.775C613.766 490.775 616.106 464.588 618.373 446.688C620.463 430.231 617.401 425.948 617.401 425.948C620.213 422.385 625.218 421.914 627.705 421.385L629.531 421.031C631.43 422.19 633.561 422.918 635.772 423.166C637.553 423.239 638.863 422.459 641.056 421.296C641.712 421.418 642.361 421.576 643 421.767C644.763 422.344 646.353 423.357 647.622 424.711C650.786 428.391 653.259 433.793 651.876 445.319C649.756 462.733 652.273 486.682 652.273 486.682L613.766 490.775Z" fill="#3F3B7A"/>
<path opacity="0.85" d="M635.758 423.166L633.579 425.918L627.691 421.385L629.517 421.031C631.416 422.19 633.547 422.918 635.758 423.166Z" fill="white"/>
<path opacity="0.85" d="M642.985 421.766L638.025 426.594L635.758 423.164C637.539 423.238 638.849 422.458 641.042 421.295C641.698 421.417 642.347 421.574 642.985 421.766Z" fill="white"/>
<path d="M627.688 421.383C627.688 421.383 633.296 447.967 631.883 465.925C630.47 483.884 630.323 482.235 632.443 497.102C634.621 512.396 640.774 517.431 640.774 517.431L607.684 519.138C607.684 519.138 608.817 479.247 611.452 471.077C613.214 464.992 614.387 458.752 614.955 452.442L617.399 425.946C617.399 425.946 619.092 420.823 627.688 421.383Z" fill="#E8E8E8"/>
<path d="M641.041 421.295C641.041 421.295 640.452 428.022 643.985 440.563C647.518 453.105 644.853 457.035 644.824 479.689C644.794 502.343 648.43 512.883 648.43 512.883L665.373 504.728C665.373 504.728 660.78 494.895 659.485 492.128C655.628 484.208 656.408 480.72 655.717 474.64C655.025 468.561 652.773 456.181 652.773 456.181L652.331 430.627C652.331 430.627 648.342 421.501 641.041 421.295Z" fill="#E8E8E8"/>
<path d="M627.718 421.178L623.949 434.234C623.949 434.234 626.039 441.153 626.687 442.963C627.335 444.774 624.759 453.621 624.759 453.621L631.927 468.591C631.927 468.591 631.927 424.828 627.718 421.178Z" fill="#C4C4C4"/>
<path d="M641.045 421.295C641.045 421.295 640.545 431.349 641.472 435.014C642.399 438.679 645.387 449.13 645.476 456.329C645.528 460.793 645.307 465.257 644.813 469.694C644.813 469.694 650.289 454.518 650.893 451.692C651.496 448.865 646.697 443.051 646.697 443.051C646.697 443.051 648.052 433.895 648.037 433.498C648.022 433.1 641.045 421.295 641.045 421.295Z" fill="#C4C4C4"/>
<path d="M614.485 480.104L625.864 481.134L621.448 492.38C621.092 493.322 620.426 494.115 619.558 494.626C618.691 495.137 617.675 495.337 616.678 495.192C616.089 495.116 615.52 494.923 615.007 494.623C614.494 494.323 614.047 493.923 613.693 493.446C613.338 492.969 613.083 492.425 612.944 491.848C612.804 491.27 612.783 490.67 612.881 490.084L614.485 480.104Z" fill="#231F3F"/>
<path d="M656.073 480.852L646.211 480.602L648.242 492.201C648.349 493.103 648.779 493.936 649.453 494.545C650.127 495.154 650.999 495.498 651.908 495.513C653.031 495.381 654.065 494.834 654.806 493.979C655.547 493.123 655.941 492.022 655.911 490.891L656.073 480.852Z" fill="#231F3F"/>
<path d="M592.554 459.095C592.986 460.271 593.734 461.306 594.715 462.085C595.697 462.864 596.875 463.357 598.118 463.511C598.569 463.554 599.022 463.554 599.473 463.511C600.771 463.405 602.012 462.934 603.054 462.153C604.096 461.371 604.896 460.311 605.361 459.095L605.758 458.079C607.73 453.177 611.028 446.377 615.547 441.887C617.411 439.903 619.737 438.411 622.318 437.545L620.993 422.354C620.993 422.354 599.458 431.436 592.378 454.738C591.957 456.17 592.019 457.701 592.554 459.095Z" fill="#E8E8E8"/>
<path d="M605.415 459.187C605.415 459.187 607.932 471.552 612.775 475.115C609.591 469.867 607.256 464.148 605.857 458.172C607.829 453.27 611.126 446.469 615.645 441.98V437.902C615.645 437.902 606.813 449.678 605.503 456.876C605.359 457.638 605.329 458.417 605.415 459.187Z" fill="#C4C4C4"/>
<path d="M627.898 469.784C631.786 471.676 636.03 472.719 640.352 472.846C647.932 473.17 657.118 472.846 650.42 469.902C643.722 466.958 638.718 470.417 638.644 468.974C638.57 467.532 641.029 465.353 637.982 465.78C634.935 466.207 632.83 465.265 628.281 464.205L627.898 469.784Z" fill="#FD9578"/>
<path d="M593.933 465.589L594.434 465.898C605.948 472.261 619.174 474.836 632.235 473.258L631.425 464.073C627.403 464.013 623.402 463.485 619.502 462.498C613.532 461.079 607.823 458.724 602.589 455.521C602.191 455.271 601.809 455.035 601.426 454.77C600.808 454.373 600.204 453.961 599.601 453.519C599.601 453.519 593.124 452.165 591.151 457.346C590.624 458.833 590.611 460.454 591.116 461.949C591.62 463.444 592.612 464.726 593.933 465.589Z" fill="#E8E8E8"/>
<path opacity="0.85" d="M628.176 463.51C630.546 463.804 631.944 463.937 631.944 463.937L632.518 473.755C632.518 473.755 631.208 473.858 628.779 473.829L628.176 463.51Z" fill="white"/>
<path d="M618.699 602.314L627.57 604.457L628.289 601.481L619.418 599.338L618.699 602.314Z" fill="#14143F"/>
<path d="M641.328 603.363L650.438 603.91L650.621 600.854L641.511 600.306L641.328 603.363Z" fill="#14143F"/>
<path d="M582.206 621.342C582.751 621.321 583.272 621.107 583.674 620.738C584.076 620.368 584.333 619.867 584.399 619.325L613.206 480.663L601.239 480.104L580.233 618.31C580.151 618.639 580.138 618.982 580.194 619.316C580.251 619.651 580.375 619.97 580.56 620.255C580.745 620.539 580.987 620.782 581.27 620.969C581.553 621.156 581.871 621.283 582.206 621.342Z" fill="#C0CCC2"/>
<path d="M533.288 621.326C533.831 621.306 534.35 621.094 534.751 620.728C535.153 620.361 535.412 619.864 535.481 619.324L564.288 480.647L552.321 480.088L531.315 618.294C531.233 618.623 531.22 618.966 531.276 619.3C531.333 619.635 531.457 619.955 531.642 620.239C531.827 620.523 532.069 620.767 532.352 620.954C532.635 621.141 532.954 621.268 533.288 621.326Z" fill="#C0CCC2"/>
<path d="M783.457 621.342C782.913 621.319 782.394 621.103 781.992 620.734C781.591 620.365 781.333 619.866 781.264 619.325L752.457 480.663L764.424 480.104L785.43 618.31C785.512 618.639 785.525 618.982 785.469 619.316C785.412 619.651 785.288 619.97 785.103 620.255C784.918 620.539 784.676 620.782 784.393 620.969C784.11 621.156 783.792 621.283 783.457 621.342Z" fill="#C0CCC2"/>
<path d="M784.528 474.17H580.582V481.78H784.528V474.17Z" fill="#DDE8E0"/>
<path d="M587.845 474.17H527.184V481.78H587.845V474.17Z" fill="#B2B7B3"/>
<path d="M765.342 412.447H681.1L669.824 465.351H754.052L765.342 412.447Z" fill="#BCC1BD"/>
<path d="M768.956 412.447H684.728L673.438 465.351H757.68L768.956 412.447Z" fill="#DDE8E0"/>
<path d="M725.533 434.088H709.621L718.085 474.17H733.997L725.533 434.088Z" fill="#BCC1BD"/>
<path d="M576.289 608.432C577.996 604.982 578.313 601.009 577.172 597.333C575.7 593.461 580.411 589.31 583.355 587.161C584.579 586.32 585.44 585.046 585.764 583.597C586.089 582.147 585.854 580.628 585.106 579.345C585.077 579.292 585.042 579.243 585.003 579.198C582.236 574.782 589.287 566.759 589.287 566.759C589.287 566.759 590.479 564.065 587.064 563.815C583.649 563.565 579.469 564.286 579.071 567.377C578.674 570.469 578.6 573.913 574.272 573.913C569.945 573.913 567.604 575.385 567.604 579.301C567.604 583.216 568.252 586.661 564.66 586.911C561.069 587.161 539.872 597.362 556.034 616.851L572.506 617.013L576.289 608.432Z" fill="#54EF93"/>
<path d="M562.789 611.393C562.789 611.393 570.797 580.702 582.264 570.574C582.264 570.574 566.572 593.935 564.246 612.173L562.789 611.393Z" fill="white"/>
<path d="M527.448 605.207C526.023 601.635 526.023 597.651 527.448 594.079C529.2 590.325 524.843 585.821 522.075 583.451C520.924 582.512 520.171 581.172 519.966 579.701C519.761 578.229 520.12 576.735 520.971 575.517L521.074 575.385C524.18 571.175 517.792 562.637 517.792 562.637C517.792 562.637 516.82 559.87 520.235 559.811C523.65 559.752 527.772 560.885 527.934 564.006C528.096 567.127 527.934 570.601 532.232 570.939C536.53 571.278 538.753 572.882 538.429 576.827C538.105 580.772 537.222 584.187 540.755 584.643C544.288 585.1 562.835 596.007 549.116 612.817C548.51 613.553 547.737 614.134 546.861 614.51C545.986 614.887 545.033 615.048 544.082 614.981L534.47 614.304C533.309 614.224 532.198 613.807 531.272 613.103C530.346 612.4 529.646 611.441 529.259 610.345L527.448 605.207Z" fill="#2FC96D"/>
<path d="M540.841 610.245C538.466 595.781 533.387 581.893 525.871 569.309C525.871 569.309 538.766 595.422 538.177 610.687L540.841 610.245Z" fill="white"/>
<path d="M568.984 593.593C568.984 593.593 568.499 585.615 562.817 580.595C557.135 575.576 564.127 562.534 564.127 562.534C564.127 562.534 565.113 558.898 559.402 555.542C553.69 552.186 555.913 539.026 555.913 539.026C555.882 538.549 555.726 538.09 555.461 537.692C555.196 537.295 554.831 536.975 554.403 536.763C553.975 536.551 553.499 536.456 553.023 536.486C552.546 536.516 552.086 536.671 551.688 536.936C547.949 538.584 544.078 541.955 545.638 545.665C547.199 549.374 549.348 553.348 544.814 555.969C540.28 558.589 538.808 561.489 541.325 565.949C543.843 570.409 546.684 573.868 543.136 576.253C539.588 578.637 524 604.633 553.278 617.042L571.163 607.15L568.984 593.593Z" fill="#35DB78"/>
<path d="M551.999 615.127C551.999 615.127 552.676 587.659 550.453 544.471C550.453 544.471 558.181 600.053 553.265 614.921L551.999 615.127Z" fill="white"/>
<path d="M516.215 620.045C516.215 620.045 532.407 604.206 540.93 605.781C549.453 607.356 554.634 615.688 554.634 615.688L569.855 606.178C570.991 605.472 572.318 605.133 573.654 605.21C574.99 605.286 576.269 605.774 577.318 606.605C581.204 609.696 586.827 615.055 587.695 620.913L516.215 620.045Z" fill="#101826"/>
</g>
<defs>
<linearGradient id="paint0_linear_3203_25133" x1="1174" y1="-96.0328" x2="725.754" y2="925.826" gradientUnits="userSpaceOnUse">
<stop stop-color="#FFDFDF"/>
<stop offset="1" stop-color="#E4DFFF"/>
</linearGradient>
<linearGradient id="paint1_linear_3203_25133" x1="3610.89" y1="2254.32" x2="-1006.74" y2="-332.847" gradientUnits="userSpaceOnUse">
<stop stop-color="#DBCEF8"/>
<stop offset="1" stop-color="#EDDFFF" stop-opacity="0.46"/>
</linearGradient>
<clipPath id="clip0_3203_25133">
<rect width="1440" height="660" fill="white"/>
</clipPath>
</defs>
</svg>
